<?xml version="1.0" encoding="utf-8"?>
<!-- Svg Vector Icons : http://www.onlinewebfonts.com/icon -->
<!DOCTYPE svg PUBLIC "-//W3C//DTD SVG 1.1//EN" "http://www.w3.org/Graphics/SVG/1.1/DTD/svg11.dtd">
<svg version="1.1" xmlns="http://www.w3.org/2000/svg" xmlns:xlink="http://www.w3.org/1999/xlink" x="0px" y="0px" viewBox="0 0 1000 1000" enable-background="new 0 0 1000 1000" xml:space="preserve">
<metadata> Svg Vector Icons : http://www.onlinewebfonts.com/icon </metadata>
<g><g transform="translate(0.000000,512.000000) scale(0.100000,-0.100000)"><path d="M6276.7,4994.5c-287.5-72.8-105.4,97.8-3163.1-2956C928.2-146.9,287.9-796.8,234.3-888.8C126.9-1067.1,98.2-1184,100.1-1417.9c1.9-224.3,38.3-352.7,151.4-527.2c76.7-117,2595.6-2632.1,2703-2697.2c164.9-101.6,293.3-136.1,508-138c233.9-1.9,350.8,26.8,529.1,134.2c92,53.7,740,692.1,2925.4,2879.4c3061.5,3065.3,2888.9,2881.3,2959.9,3178.4c55.6,241.5,9.6,531-122.7,745.7c-65.2,107.4-2580.3,2626.3-2697.2,2703C6836.5,5002.2,6520.2,5057.8,6276.7,4994.5z M4631.9-2961.1c-1142.5-1142.5-1100.4-1108-1248-1037.1c-95.8,44.1-2503.6,2461.4-2520.9,2528.5c-36.4,149.5-59.4,120.8,1052.4,1236.5l1039,1039L4315.6-555.2l1361.1-1361.1L4631.9-2961.1z"/></g></g>
</svg>